<svg width="12" height="14" viewBox="0 0 12 14" fill="none" xmlns="http://www.w3.org/2000/svg">
<path d="M11.4538 6.80069L11.4537 6.80073L11.4575 6.80994C11.5075 6.93167 11.5075 7.06821 11.4575 7.18994L11.4574 7.1899L11.4538 7.19919C11.4306 7.25916 11.396 7.31406 11.3519 7.36091L6.35644 12.3564L6.355 12.3578C6.30852 12.4047 6.25321 12.4419 6.19229 12.4673C6.13136 12.4927 6.06601 12.5057 6 12.5057C5.93399 12.5057 5.86864 12.4927 5.80771 12.4673C5.74679 12.4419 5.69148 12.4047 5.645 12.3578L5.6421 12.3549C5.59524 12.3085 5.55804 12.2532 5.53266 12.1922C5.50727 12.1313 5.4942 12.0659 5.4942 11.9999C5.4942 11.9339 5.50727 11.8686 5.53266 11.8077C5.55804 11.7467 5.59524 11.6914 5.6421 11.6449L5.64302 11.644L8.94302 8.35403L9.7997 7.49994H8.59H1C0.867392 7.49994 0.740215 7.44726 0.646447 7.35349C0.552678 7.25973 0.5 7.13255 0.5 6.99994C0.5 6.86733 0.552678 6.74016 0.646447 6.64639C0.740215 6.55262 0.867392 6.49994 1 6.49994H8.59H9.7997L8.94302 5.64585L5.64355 2.35639C5.6435 2.35633 5.64345 2.35628 5.64339 2.35623C5.54896 2.26171 5.49591 2.13356 5.49591 1.99994C5.49591 1.93374 5.50895 1.86819 5.53428 1.80703C5.55961 1.74588 5.59674 1.6903 5.64355 1.64349C5.73809 1.54896 5.86631 1.49585 6 1.49585C6.0662 1.49585 6.13175 1.50889 6.19291 1.53422C6.25407 1.55955 6.30964 1.59669 6.35645 1.64349L6.70831 1.29163L6.35645 1.64349L11.3519 6.63897C11.396 6.68582 11.4306 6.74073 11.4538 6.80069Z" fill="#333333" stroke="#333333"/>
</svg>
