<svg width="12" height="14" viewBox="0 0 12 14" fill="none" xmlns="http://www.w3.org/2000/svg">
<path d="M3.05688 5.64585L2.20019 6.49994H3.4099H10.9999C11.1325 6.49994 11.2597 6.55262 11.3534 6.64639C11.4472 6.74016 11.4999 6.86733 11.4999 6.99994C11.4999 7.13255 11.4472 7.25973 11.3534 7.35349C11.2597 7.44726 11.1325 7.49994 10.9999 7.49994H3.4099H2.20019L3.05688 8.35403L6.35688 11.644L6.3578 11.6449C6.40466 11.6914 6.44186 11.7467 6.46724 11.8077C6.49263 11.8686 6.50569 11.9339 6.50569 11.9999C6.50569 12.0659 6.49263 12.1313 6.46724 12.1922C6.44186 12.2532 6.40466 12.3085 6.3578 12.3549L6.35778 12.3549L6.3549 12.3578C6.30841 12.4047 6.25311 12.4419 6.19218 12.4673C6.13126 12.4927 6.06591 12.5057 5.9999 12.5057C5.93389 12.5057 5.86854 12.4927 5.80761 12.4673C5.74668 12.4419 5.69138 12.4047 5.6449 12.3578L5.64345 12.3564L0.647971 7.36091C0.603933 7.31407 0.569333 7.25916 0.546081 7.19919L0.546173 7.19915L0.54239 7.18994C0.492381 7.06821 0.492381 6.93167 0.54239 6.80994L0.542481 6.80998L0.546081 6.80069C0.569333 6.74073 0.603933 6.68582 0.64797 6.63897L5.64345 1.64349L5.29173 1.29177L5.64345 1.64349C5.73799 1.54896 5.8662 1.49585 5.9999 1.49585C6.13359 1.49585 6.26181 1.54896 6.35634 1.64349C6.45088 1.73803 6.50399 1.86625 6.50399 1.99994C6.50399 2.13356 6.45094 2.26171 6.3565 2.35623C6.35645 2.35628 6.3564 2.35633 6.35634 2.35639L3.05688 5.64585Z" fill="#01959F" stroke="#01959F"/>
</svg>
