<svg width="20" height="21" viewBox="0 0 20 21" fill="none" xmlns="http://www.w3.org/2000/svg">
<path d="M7.24289 16.4999L7.24289 16.4999H7.24H3C2.86739 16.4999 2.74021 16.4473 2.64645 16.3535C2.55268 16.2597 2.5 16.1325 2.5 15.9999L2.50001 11.7599L2.49999 11.757C2.49961 11.6912 2.51222 11.626 2.53711 11.5651C2.56186 11.5045 2.59826 11.4494 2.64426 11.4028C2.6445 11.4025 2.64475 11.4023 2.64499 11.402L9.5833 4.47375L9.58418 4.47287L12.4042 1.64287L12.405 1.64204C12.4515 1.59517 12.5068 1.55798 12.5677 1.53259C12.6286 1.50721 12.694 1.49414 12.76 1.49414C12.826 1.49414 12.8914 1.50721 12.9523 1.53259C13.0131 1.55794 13.0684 1.59508 13.1148 1.64185C13.1149 1.64192 13.1149 1.64198 13.115 1.64204L17.3544 5.93141L17.3544 5.93143L17.3579 5.93494C17.4048 5.98142 17.442 6.03672 17.4673 6.09765C17.4927 6.15858 17.5058 6.22393 17.5058 6.28994C17.5058 6.35595 17.4927 6.4213 17.4673 6.48223C17.4421 6.54276 17.4052 6.59773 17.3588 6.64403C17.3585 6.64433 17.3582 6.64464 17.3579 6.64494L14.5202 9.42263L14.5202 9.42261L14.5162 9.42664L7.59789 16.3549C7.59767 16.3552 7.59744 16.3554 7.59722 16.3556C7.55064 16.4016 7.49547 16.4381 7.43484 16.4628C7.37393 16.4877 7.30869 16.5003 7.24289 16.4999ZM13.1136 3.05639L12.76 2.70283L12.4064 3.05639L10.9864 4.47639L10.6329 4.82994L10.9864 5.18349L13.8164 8.01349L14.17 8.36705L14.5236 8.01349L15.9436 6.59349L16.2971 6.23994L15.9436 5.88639L13.1136 3.05639ZM3.64645 11.8164L3.5 11.9628V12.1699V14.9999V15.4999H4H6.83H7.03711L7.18355 15.3535L13.1136 9.42349L13.4671 9.06994L13.1136 8.71639L10.2836 5.88639L9.93 5.53283L9.57645 5.88639L3.64645 11.8164ZM1 19.4999H19C19.1326 19.4999 19.2598 19.5526 19.3536 19.6464C19.4473 19.7402 19.5 19.8673 19.5 19.9999C19.5 20.1325 19.4473 20.2597 19.3536 20.3535C19.2598 20.4473 19.1326 20.4999 19 20.4999H1C0.867391 20.4999 0.740214 20.4473 0.646446 20.3535C0.552679 20.2597 0.5 20.1325 0.5 19.9999C0.5 19.8673 0.552679 19.7402 0.646446 19.6464C0.740214 19.5526 0.867391 19.4999 1 19.4999Z" fill="#333333" stroke="#333333"/>
</svg>
